{
  "source": "C:\\Users\\Peter\\Desktop\\stuff\\MIUN\\quantitative_research\\video_compression\\videos\\BVI-HD\\BVI-HD_CDVL_videos\\ORIG\\Toys_1920x1080_30fps.mp4",
  "output": "C:\\Users\\Peter\\Desktop\\stuff\\MIUN\\quantitative_research\\video_compression\\compressed_videos\\BVI-HD\\vp9\\1.5\\Toys_1920x1080_30fps_vp9.webm",
  "codec": "vp9",
  "ok": "Input #0, mov,mp4,m4a,3gp,3g2,mj2, from 'C:\\Users\\Peter\\Desktop\\stuff\\MIUN\\quantitative_research\\video_compression\\videos\\BVI-HD\\BVI-HD_CDVL_videos\\ORIG\\Toys_1920x1080_30fps.mp4':\n  Metadata:\n    major_brand     : isom\n    minor_version   : 512\n    compatible_brands: isomiso2avc1mp41\n    encoder         : Lavf54.28.101\n  Duration: 00:00:05.00, start: 0.000000, bitrate: 270887 kb/s\n  Stream #0:0[0x1](und): Video: h264 (High 4:4:4 Predictive) (avc1 / 0x31637661), yuv420p(progressive), 1920x1080, 270883 kb/s, 30 fps, 30 tbr, 30 tbn (default)\n    Metadata:\n      handler_name    : VideoHandler\n      vendor_id       : [0][0][0][0]\n[out#0/webm @ 0000020bcfdc9700] Codec AVOption b:a (set bitrate (in bits/s)) has not been used for any stream. The most likely reason is either wrong type (e.g. a video option with no video streams) or that it is a private option of some decoder which was not actually used for any stream.\nStream mapping:\n  Stream #0:0 -> #0:0 (h264 (native) -> vp9 (libvpx-vp9))\nPress [q] to stop, [?] for help\n[libvpx-vp9 @ 0000020bd0870440] v1.15.2-100-g40561f514\nOutput #0, webm, to 'C:\\Users\\Peter\\Desktop\\stuff\\MIUN\\quantitative_research\\video_compression\\compressed_videos\\BVI-HD\\vp9\\1.5\\Toys_1920x1080_30fps_vp9.webm':\n  Metadata:\n    major_brand     : isom\n    minor_version   : 512\n    compatible_brands: isomiso2avc1mp41\n    encoder         : Lavf62.3.100\n  Stream #0:0(und): Video: vp9, yuv420p(tv, progressive), 1920x1080, q=2-31, 1500 kb/s, 30 fps, 1k tbn (default)\n    Metadata:\n      encoder         : Lavc62.11.100 libvpx-vp9\n      handler_name    : VideoHandler\n      vendor_id       : [0][0][0][0]\n    Side data:\n      cpb: bitrate max/min/avg: 0/0/0 buffer size: 1500000 vbv_delay: N/A\nframe=    0 fps=0.0 q=0.0 size=       0KiB time=N/A bitrate=N/A speed=N/A elapsed=0:00:00.53    \nframe=    5 fps=4.3 q=58.0 size=       1KiB time=00:00:00.16 bitrate=  30.4kbits/s speed=0.143x elapsed=0:00:01.16    \nframe=   10 fps=6.0 q=57.0 size=       1KiB time=00:00:00.33 bitrate=  15.2kbits/s speed=0.199x elapsed=0:00:01.67    \nframe=   16 fps=7.3 q=56.0 size=       1KiB time=00:00:00.53 bitrate=   9.5kbits/s speed=0.243x elapsed=0:00:02.19    \nframe=   20 fps=7.3 q=57.0 size=       1KiB time=00:00:00.66 bitrate=   7.6kbits/s speed=0.242x elapsed=0:00:02.75    \nframe=   25 fps=7.6 q=55.0 size=       1KiB time=00:00:00.83 bitrate=   6.1kbits/s speed=0.254x elapsed=0:00:03.28    \nframe=   30 fps=7.9 q=56.0 size=       1KiB time=00:00:01.00 bitrate=   5.1kbits/s speed=0.263x elapsed=0:00:03.79    \nframe=   34 fps=7.8 q=54.0 size=       1KiB time=00:00:01.13 bitrate=   4.5kbits/s speed=0.261x elapsed=0:00:04.33    \nframe=   39 fps=8.0 q=56.0 size=       1KiB time=00:00:01.30 bitrate=   3.9kbits/s speed=0.268x elapsed=0:00:04.84    \nframe=   44 fps=8.1 q=53.0 size=       1KiB time=00:00:01.46 bitrate=   3.5kbits/s speed=0.271x elapsed=0:00:05.40    \nframe=   48 fps=8.1 q=54.0 size=       1KiB time=00:00:01.60 bitrate=   3.2kbits/s speed=0.269x elapsed=0:00:05.94    \nframe=   52 fps=8.0 q=53.0 size=       1KiB time=00:00:01.73 bitrate=   2.9kbits/s speed=0.268x elapsed=0:00:06.46    \nframe=   57 fps=8.2 q=53.0 size=       1KiB time=00:00:01.90 bitrate=   2.7kbits/s speed=0.272x elapsed=0:00:06.98    \nframe=   61 fps=8.1 q=52.0 size=       1KiB time=00:00:02.03 bitrate=   2.5kbits/s speed=0.271x elapsed=0:00:07.51    \nframe=   66 fps=8.2 q=54.0 size=       1KiB time=00:00:02.20 bitrate=   2.3kbits/s speed=0.274x elapsed=0:00:08.02    \nframe=   70 fps=8.2 q=53.0 size=       1KiB time=00:00:02.33 bitrate=   2.2kbits/s speed=0.272x elapsed=0:00:08.57    \nframe=   75 fps=8.2 q=53.0 size=       1KiB time=00:00:02.50 bitrate=   2.0kbits/s speed=0.274x elapsed=0:00:09.10    \nframe=   80 fps=8.3 q=52.0 size=       1KiB time=00:00:02.66 bitrate=   1.9kbits/s speed=0.277x elapsed=0:00:09.62    \nframe=   84 fps=8.3 q=53.0 size=       1KiB time=00:00:02.80 bitrate=   1.8kbits/s speed=0.276x elapsed=0:00:10.15    \nframe=   88 fps=8.2 q=53.0 size=       1KiB time=00:00:02.93 bitrate=   1.7kbits/s speed=0.274x elapsed=0:00:10.69    \nframe=   93 fps=8.3 q=53.0 size=       1KiB time=00:00:03.10 bitrate=   1.6kbits/s speed=0.276x elapsed=0:00:11.21    \nframe=   98 fps=8.3 q=52.0 size=       1KiB time=00:00:03.26 bitrate=   1.6kbits/s speed=0.278x elapsed=0:00:11.73    \nframe=  103 fps=8.4 q=52.0 size=       1KiB time=00:00:03.43 bitrate=   1.5kbits/s speed=0.28x elapsed=0:00:12.26    \nframe=  108 fps=8.4 q=53.0 size=       1KiB time=00:00:03.60 bitrate=   1.4kbits/s speed=0.281x elapsed=0:00:12.79    \nframe=  113 fps=8.5 q=43.0 size=       1KiB time=00:00:03.76 bitrate=   1.3kbits/s speed=0.283x elapsed=0:00:13.32    \nframe=  118 fps=8.5 q=53.0 size=       1KiB time=00:00:03.93 bitrate=   1.3kbits/s speed=0.284x elapsed=0:00:13.86    \nframe=  123 fps=8.5 q=53.0 size=       1KiB time=00:00:04.10 bitrate=   1.2kbits/s speed=0.285x elapsed=0:00:14.40    \nframe=  126 fps=8.4 q=52.0 size=       1KiB time=00:00:04.20 bitrate=   1.2kbits/s speed=0.281x elapsed=0:00:14.93    \nframe=  126 fps=8.2 q=52.0 size=       1KiB time=00:00:04.20 bitrate=   1.2kbits/s speed=0.272x elapsed=0:00:15.45    \nframe=  126 fps=7.9 q=52.0 size=       1KiB time=00:00:04.20 bitrate=   1.2kbits/s speed=0.263x elapsed=0:00:15.97    \nframe=  126 fps=7.6 q=52.0 size=       1KiB time=00:00:04.20 bitrate=   1.2kbits/s speed=0.255x elapsed=0:00:16.49    \nframe=  126 fps=7.4 q=52.0 size=       1KiB time=00:00:04.20 bitrate=   1.2kbits/s speed=0.247x elapsed=0:00:17.01    \n[out#0/webm @ 0000020bcfdc9700] video:1000KiB audio:0KiB subtitle:0KiB other streams:0KiB global headers:0KiB muxing overhead: 0.172445%\nframe=  150 fps=8.7 q=52.0 Lsize=    1001KiB time=00:00:05.00 bitrate=1640.4kbits/s speed=0.29x elapsed=0:00:17.24    \n",
  "seconds": 17.540311098098755,
  "probe_out": {}
}